<?xml version="1.0" standalone="no"?>
<!DOCTYPE svg PUBLIC "-//W3C//DTD SVG 20010904//EN"
 "http://www.w3.org/TR/2001/REC-SVG-20010904/DTD/svg10.dtd">
<svg version="1.0" xmlns="http://www.w3.org/2000/svg"
 width="64.000000" height="64.000000" viewBox="0 0 64.000000 64.000000"
 preserveAspectRatio="xMidYMid meet">
<metadata>
Created by potrace 1.15, written by Peter Selinger 2001-2017
</metadata>
<g fill-opacity="0.5"><g transform="translate(0.000000,64.000000) scale(0.100000,-0.100000)"
fill="#00007f" stroke="none">
<path d="M208 192 c-53 -17 -67 -36 -16 -21 54 15 60 12 53 -21 -5 -22 -3 -30
8 -30 13 0 37 39 37 60 0 21 -36 27 -82 12z"/>
</g>
<g transform="translate(0.000000,64.000000) scale(0.100000,-0.100000)"
fill="#0000bf" stroke="none">
<path d="M347 281 c8 -81 -11 -151 -54 -200 -37 -44 -32 -54 10 -21 40 31 66
98 74 184 5 61 3 80 -8 87 -25 16 -27 10 -22 -50z"/>
</g>
<g transform="translate(0.000000,64.000000) scale(0.100000,-0.100000)"
fill="#0000fe" stroke="none">
<path d="M472 439 c-7 -11 -37 -31 -65 -44 -66 -30 -31 -34 45 -5 79 30 87 37
64 55 -26 19 -29 19 -44 -6z"/>
</g>
<g transform="translate(0.000000,64.000000) scale(0.100000,-0.100000)"
fill="#0028ff" stroke="none">
<path d="M413 337 c-60 -15 -53 -28 11 -21 l53 6 7 -32 c8 -41 8 -163 0 -184
-3 -9 -18 -16 -32 -16 l-26 0 34 -29 c55 -46 62 -30 62 132 0 75 -3 140 -6
146 -8 13 -45 12 -103 -2z"/>
</g>
<g transform="translate(0.000000,64.000000) scale(0.100000,-0.100000)"
fill="#0060ff" stroke="none">
<path d="M193 393 c-7 -3 -13 -10 -13 -16 0 -7 -13 -23 -30 -37 -19 -16 -27
-29 -22 -38 7 -10 25 -5 78 22 68 35 70 45 5 26 -33 -9 -33 -9 -16 10 19 21
17 40 -2 33z"/>
</g>
<g transform="translate(0.000000,64.000000) scale(0.100000,-0.100000)"
fill="#009cff" stroke="none">
<path d="M380 190 c-8 -5 -12 -11 -10 -13 9 -7 90 5 90 14 0 12 -61 11 -80 -1z"/>
</g>
<g transform="translate(0.000000,64.000000) scale(0.100000,-0.100000)"
fill="#00d4ff" stroke="none">
<path d="M233 523 c-18 -2 -33 -9 -33 -15 0 -13 89 -3 104 12 10 10 -6 11 -71
3z"/>
</g>
<g transform="translate(0.000000,64.000000) scale(0.100000,-0.100000)"
fill="#1fffd7" stroke="none">
<path d="M160 560 c6 -11 13 -49 17 -85 9 -93 30 -87 26 8 -4 89 -7 97 -33 97
-18 0 -19 -3 -10 -20z"/>
</g>
<g transform="translate(0.000000,64.000000) scale(0.100000,-0.100000)"
fill="#4cffaa" stroke="none">
<path d="M199 285 c-1 -19 -2 -48 -3 -65 -2 -51 19 -33 32 26 12 60 10 74 -14
74 -9 0 -14 -12 -15 -35z"/>
</g>
<g transform="translate(0.000000,64.000000) scale(0.100000,-0.100000)"
fill="#7cff79" stroke="none">
<path d="M233 473 c-38 -5 -45 -23 -9 -23 40 0 86 12 80 21 -5 9 -12 9 -71 2z"/>
</g>
<g transform="translate(0.000000,64.000000) scale(0.100000,-0.100000)"
fill="#aaff4c" stroke="none">
<path d="M278 275 c-2 -2 -19 -6 -38 -9 -104 -17 -160 -31 -157 -40 5 -13 36
-12 102 3 28 6 67 14 88 18 20 3 37 9 37 13 0 9 -26 21 -32 15z"/>
</g>
<g transform="translate(0.000000,64.000000) scale(0.100000,-0.100000)"
fill="#d7ff1f" stroke="none">
<path d="M240 419 c-19 -4 -70 -13 -112 -20 -43 -6 -75 -15 -72 -20 8 -13 62
-11 124 5 30 7 76 17 103 20 26 4 47 11 47 17 0 11 -41 10 -90 -2z"/>
</g>
<g transform="translate(0.000000,64.000000) scale(0.100000,-0.100000)"
fill="#ffe500" stroke="none">
<path d="M270 375 c0 -19 37 -61 46 -53 10 11 -7 48 -27 58 -15 9 -19 7 -19
-5z"/>
</g>
<g transform="translate(0.000000,64.000000) scale(0.100000,-0.100000)"
fill="#ffb100" stroke="none">
<path d="M265 585 c-5 -2 -22 -6 -37 -9 -16 -4 -28 -10 -28 -15 0 -5 8 -8 18
-6 9 2 38 7 65 10 50 7 66 26 20 24 -16 0 -32 -2 -38 -4z"/>
</g>
<g transform="translate(0.000000,64.000000) scale(0.100000,-0.100000)"
fill="#ff7a00" stroke="none">
<path d="M213 119 c-52 -15 -38 -27 17 -16 27 5 47 13 44 18 -6 11 -18 10 -61
-2z"/>
</g>
<g transform="translate(0.000000,64.000000) scale(0.100000,-0.100000)"
fill="#ff4600" stroke="none">
<path d="M130 171 c0 -17 40 -104 46 -99 3 3 2 29 -2 57 -5 41 -10 51 -25 51
-11 0 -19 -4 -19 -9z"/>
</g>
<g transform="translate(0.000000,64.000000) scale(0.100000,-0.100000)"
fill="#fe1200" stroke="none">
<path d="M405 263 c-32 -8 -42 -23 -14 -23 42 0 73 12 57 21 -7 5 -15 8 -18 8
-3 -1 -14 -3 -25 -6z"/>
</g>
<g transform="translate(0.000000,64.000000) scale(0.100000,-0.100000)"
fill="#bf0000" stroke="none">
<path d="M449 584 c-8 -10 -34 -30 -58 -46 -33 -20 -39 -28 -25 -28 30 0 146
60 141 74 -6 18 -43 18 -58 0z"/>
</g>
<g transform="translate(0.000000,64.000000) scale(0.100000,-0.100000)"
fill="#7f0000" stroke="none">
<path d="M459 504 c-13 -14 -40 -34 -59 -45 -19 -10 -28 -18 -20 -18 17 -1 91
32 121 53 21 14 21 14 1 25 -16 8 -24 5 -43 -15z"/>
</g>
</g></svg>
