<?xml version="1.0" standalone="no"?>
<!DOCTYPE svg PUBLIC "-//W3C//DTD SVG 20010904//EN"
 "http://www.w3.org/TR/2001/REC-SVG-20010904/DTD/svg10.dtd">
<svg version="1.0" xmlns="http://www.w3.org/2000/svg"
 width="64.000000pt" height="64.000000pt" viewBox="0 0 64.000000 64.000000"
 preserveAspectRatio="xMidYMid meet">
<metadata>
Created by potrace 1.15, written by Peter Selinger 2001-2017
</metadata>
<g fill-opacity="0.5"><g transform="translate(0.000000,64.000000) scale(0.100000,-0.100000)"
fill="#00007f" stroke="none">
<path d="M465 300 c-3 -5 3 -26 13 -47 11 -21 22 -50 26 -65 3 -16 10 -28 15
-28 4 0 16 -18 26 -40 10 -22 24 -40 32 -40 18 0 17 2 -17 70 -16 33 -30 67
-30 77 0 22 -36 83 -49 83 -6 0 -13 -4 -16 -10z"/>
</g>
<g transform="translate(0.000000,64.000000) scale(0.100000,-0.100000)"
fill="#00d4ff" stroke="none">
<path d="M175 468 c-3 -13 -7 -50 -9 -83 -3 -33 -8 -97 -12 -143 -6 -79 -6
-82 15 -82 11 0 21 3 21 8 0 4 7 72 15 152 18 182 18 170 -5 170 -12 0 -22 -8
-25 -22z"/>
</g>
<g transform="translate(0.000000,64.000000) scale(0.100000,-0.100000)"
fill="#ffe500" stroke="none">
<path d="M186 477 c-28 -9 -33 -45 -5 -38 8 1 39 5 71 8 123 12 218 -77 243
-228 5 -32 3 -40 -14 -51 -24 -14 -28 -38 -8 -38 8 0 24 9 37 20 20 18 22 26
17 75 -3 30 -16 75 -28 101 -26 50 -94 119 -137 135 -41 17 -146 26 -176 16z"/>
</g>
<g transform="translate(0.000000,64.000000) scale(0.100000,-0.100000)"
fill="#7f0000" stroke="none">
<path d="M145 386 c-16 -12 -20 -25 -18 -73 2 -65 18 -117 33 -108 13 8 13 41
-1 80 -7 18 -9 44 -5 59 l7 27 32 -26 c106 -89 60 -226 -90 -267 -56 -16 -60
-43 -6 -33 54 10 106 39 141 79 55 63 55 140 -1 223 -34 51 -60 62 -92 39z"/>
</g>
</g></svg>
